<svg version="1.1" id="Layer_1" xmlns="http://www.w3.org/2000/svg" xmlns:xlink="http://www.w3.org/1999/xlink" x="0px" y="0px"
	 width="100%" viewBox="0 0 6250 6250" enable-background="new 0 0 6250 6250" xml:space="preserve">
<path fill="#05001E" opacity="1.000000" stroke="none" 
	d="
M3048.000000,6256.000000 
	C2032.000122,6256.000000 1018.000366,6256.000000 4.000408,6256.000000 
	C4.000272,4172.000488 4.000272,2088.001221 4.000136,4.001247 
	C2087.999023,4.000832 4171.998047,4.000832 6255.998047,4.000416 
	C6255.998535,2087.998779 6255.998535,4171.997559 6255.999023,6255.998047 
	C5187.333496,6256.000000 4118.666504,6256.000000 3048.000000,6256.000000 
M3694.410645,2522.000244 
	C3694.408936,2489.333984 3694.756348,2456.662842 3694.297607,2424.002930 
	C3693.913574,2396.678223 3692.552979,2369.344238 3686.884521,2342.493652 
	C3653.670898,2185.162354 3517.018555,2072.860596 3358.553223,2072.265381 
	C3125.225342,2071.388672 2891.891846,2071.911621 2658.561279,2072.264404 
	C2639.337646,2072.293457 2619.849365,2074.117432 2600.945557,2077.608398 
	C2528.649170,2090.958984 2466.544678,2124.165283 2416.011963,2177.654785 
	C2356.882568,2240.243896 2324.158936,2314.721436 2323.002930,2401.138428 
	C2321.745850,2495.118164 2322.665039,2589.130859 2323.162598,2683.126465 
	C2323.253662,2700.375244 2324.791016,2717.780029 2327.479736,2734.825928 
	C2349.343506,2873.445068 2456.833740,2984.853027 2594.447021,3012.247070 
	C2619.390625,3017.212402 2644.530762,3019.375732 2669.948975,3019.235840 
	C2676.951172,3019.197266 2684.490967,3017.277100 2691.993164,3022.345703 
	C2691.993164,3030.935303 2691.993164,3039.529053 2691.993164,3048.123047 
	C2691.993164,3057.456299 2691.993164,3066.789307 2691.993164,3076.122559 
	C2691.993164,3084.789062 2691.993164,3093.455811 2691.993164,3102.122314 
	C2691.993164,3110.788818 2691.993164,3119.455566 2691.993164,3128.122070 
	C2691.993164,3136.788574 2691.993164,3145.455322 2691.993164,3154.121826 
	C2691.993164,3163.455078 2691.993164,3172.788330 2691.993164,3182.121582 
	C2691.993164,3190.788086 2691.993164,3199.454834 2691.993164,3208.121338 
	C2691.993164,3216.787842 2691.993164,3225.454590 2691.993164,3234.121094 
	C2691.993164,3242.787598 2691.992920,3251.454346 2691.993164,3260.120850 
	C2691.993164,3269.454102 2691.880615,3278.789062 2692.027100,3288.120117 
	C2692.158203,3296.469971 2691.274414,3304.933350 2693.188721,3315.525391 
	C2697.446533,3312.105713 2700.040527,3310.369141 2702.221436,3308.213867 
	C2714.075684,3296.499023 2725.818604,3284.671631 2737.617188,3272.900146 
	C2789.327637,3221.307617 2846.677246,3176.930176 2909.740479,3140.153076 
	C3044.984131,3061.281738 3190.817871,3020.432373 3347.599854,3019.015869 
	C3367.540039,3018.835693 3387.835449,3018.415283 3407.328857,3014.731934 
	C3539.402588,2989.776611 3629.551514,2914.364258 3676.157227,2787.932373 
	C3689.677246,2751.254639 3694.172852,2712.886475 3694.336914,2673.998779 
	C3694.545410,2624.666992 3694.401611,2575.333252 3694.410645,2522.000244 
M3790.587402,1799.371094 
	C3735.688477,1763.521484 3675.643066,1743.880737 3609.906006,1743.815063 
	C3375.961914,1743.581177 3142.017334,1743.761230 2908.072998,1743.660034 
	C2883.277100,1743.649292 2858.920166,1746.645386 2834.806641,1752.129883 
	C2710.645752,1780.369995 2610.265869,1879.669434 2581.152100,2003.140869 
	C2579.673828,2009.409424 2578.257568,2015.771851 2578.237793,2023.539551 
	C2582.697998,2023.189087 2585.909912,2023.225952 2589.006592,2022.647583 
	C2612.636719,2018.235840 2636.404053,2015.815308 2660.494385,2015.827026 
	C2892.439209,2015.938965 3124.384033,2015.924805 3356.328857,2015.855713 
	C3381.750732,2015.848145 3406.813232,2018.608032 3431.739746,2023.463989 
	C3568.116699,2050.032227 3682.684814,2150.104492 3728.154785,2281.970947 
	C3743.992188,2327.900879 3750.030029,2375.213867 3750.154785,2423.464844 
	C3750.341064,2495.447266 3750.179688,2567.430176 3750.263916,2639.413086 
	C3750.269775,2644.470703 3751.081543,2649.527588 3751.502197,2654.394287 
	C3753.541260,2654.394287 3754.229248,2654.564697 3754.781006,2654.363037 
	C3756.645752,2653.682617 3758.559082,2653.043213 3760.283691,2652.083252 
	C3875.632812,2587.841553 3938.593506,2489.933838 3943.069824,2357.907715 
	C3946.139404,2267.365967 3943.938721,2176.636963 3943.623047,2085.993164 
	C3943.492188,2048.484131 3938.077148,2011.607666 3926.007324,1975.941895 
	C3901.242676,1902.763794 3856.769775,1844.489380 3790.587402,1799.371094 
M3554.206787,3927.938232 
	C3565.529297,3927.605225 3576.850098,3927.102539 3588.174805,3926.985107 
	C3600.599121,3926.856201 3603.900635,3930.484131 3602.425537,3942.325439 
	C3600.779297,3955.540527 3598.679199,3968.704590 3597.274902,3981.943604 
	C3595.729492,3996.516113 3594.278564,4011.128418 3593.656494,4025.760498 
	C3593.016846,4040.802002 3597.106201,4047.099121 3610.852539,4051.228516 
	C3627.392578,4056.196777 3644.269287,4060.057617 3661.045410,4064.215576 
	C3664.898926,4065.170654 3668.927246,4065.738281 3672.892822,4065.850342 
	C3678.795654,4066.017334 3682.869141,4062.480225 3684.096436,4056.548340 
	C3684.634277,4053.949951 3684.621094,4051.242920 3685.027588,4048.611328 
	C3692.548340,3999.928711 3699.464844,3951.141846 3707.788818,3902.596680 
	C3719.151123,3836.330078 3733.319580,3770.627441 3751.087891,3705.748047 
	C3755.480225,3689.710205 3760.396973,3673.816650 3764.825928,3657.788574 
	C3767.642822,3647.594727 3765.240967,3642.785889 3756.035156,3638.799316 
	C3754.205566,3638.007324 3752.371582,3637.156006 3750.456787,3636.641357 
	C3733.766602,3632.154541 3717.167236,3627.257568 3700.327148,3623.419922 
	C3678.484863,3618.442383 3675.032959,3619.987549 3668.228027,3641.434814 
	C3659.381836,3669.314941 3651.201904,3697.460449 3644.160889,3725.845215 
	C3636.314453,3757.477295 3630.014648,3789.494629 3623.146973,3821.366943 
	C3619.228027,3839.554688 3616.791260,3841.909912 3597.852783,3842.598145 
	C3578.543457,3843.300049 3559.219971,3843.744385 3539.899170,3843.965332 
	C3521.682373,3844.173828 3519.704590,3841.972900 3523.275635,3824.590088 
	C3534.525635,3769.824951 3546.316406,3715.153320 3564.539307,3662.196777 
	C3569.063232,3649.049316 3566.024170,3640.664062 3551.677246,3636.783936 
	C3536.271484,3632.617188 3521.023438,3627.530273 3505.372070,3624.684814 
	C3481.937012,3620.424072 3476.232910,3615.689209 3466.348633,3646.780029 
	C3454.237061,3684.877441 3444.467773,3723.555908 3435.996094,3762.572266 
	C3430.348389,3788.583008 3425.242676,3814.718018 3420.381836,3840.888184 
	C3418.884766,3848.949707 3415.262939,3854.343994 3407.545410,3857.021729 
	C3404.402344,3858.112549 3400.759277,3858.729980 3398.367920,3860.765625 
	C3395.571289,3863.146484 3392.175049,3866.755127 3392.015869,3869.977783 
	C3391.193115,3886.646484 3391.060547,3903.853027 3399.103760,3918.755615 
	C3403.675537,3927.225830 3404.258301,3934.884521 3403.220947,3943.513184 
	C3401.313232,3959.381104 3399.027832,3975.210693 3397.464600,3991.111572 
	C3396.162354,4004.361816 3395.360840,4017.681152 3394.919922,4030.989258 
	C3394.597900,4040.715820 3399.520020,4048.070068 3408.830566,4050.633057 
	C3428.679199,4056.097656 3448.658447,4061.227783 3468.814209,4065.379150 
	C3479.336670,4067.546143 3483.382568,4063.958740 3485.077637,4053.198975 
	C3487.666992,4036.760498 3489.487305,4020.202393 3491.895996,4003.733154 
	C3494.689697,3984.632812 3497.536865,3965.534668 3500.794189,3946.509521 
	C3503.217773,3932.350586 3507.441406,3929.036377 3522.336182,3928.491211 
	C3531.657227,3928.149902 3540.990967,3928.149170 3554.206787,3927.938232 
M2670.381348,3727.355469 
	C2651.386719,3805.636230 2636.022461,3884.623291 2625.289795,3964.458496 
	C2622.456299,3985.535156 2621.085693,4006.853760 2620.045166,4028.110352 
	C2619.373291,4041.836182 2622.746582,4046.881592 2635.053467,4050.637207 
	C2654.100342,4056.449219 2673.406494,4061.538818 2692.823975,4065.962891 
	C2704.510986,4068.625732 2710.044922,4063.801514 2711.711670,4051.646240 
	C2715.869141,4021.323486 2719.766357,3990.963867 2724.092285,3960.665527 
	C2725.971436,3947.503906 2728.421875,3934.409668 2731.135986,3921.393555 
	C2731.737305,3918.508545 2733.958984,3914.988281 2736.450195,3913.648926 
	C2744.644043,3909.242676 2754.237305,3912.840332 2757.937500,3921.406494 
	C2760.300781,3926.878662 2761.875732,3932.690430 2763.827393,3938.341797 
	C2774.294678,3968.648438 2787.478760,3997.698730 2805.460938,4024.302246 
	C2812.510742,4034.732178 2820.462158,4044.724365 2829.122803,4053.853516 
	C2843.114502,4068.601807 2850.957520,4069.965332 2867.720215,4059.484863 
	C2883.472168,4049.636230 2898.203613,4038.144775 2913.264404,4027.211426 
	C2915.913818,4025.288086 2918.193604,4022.729736 2920.259766,4020.156250 
	C2924.133545,4015.331787 2924.024170,4010.591064 2920.057129,4005.612549 
	C2918.407959,4003.542480 2916.376709,4001.773682 2914.494873,3999.892334 
	C2888.888672,3974.288086 2869.223145,3944.166260 2849.550781,3914.080811 
	C2847.554443,3911.027588 2847.327148,3906.817627 2846.119385,3902.584717 
	C2850.220215,3900.188965 2853.452637,3897.977295 2856.948242,3896.321533 
	C2865.952637,3892.056641 2875.336426,3888.527588 2884.098145,3883.827881 
	C2910.324951,3869.759277 2932.788086,3851.299561 2948.496582,3825.593262 
	C2967.847412,3793.926270 2971.124756,3760.742188 2956.659668,3726.305664 
	C2940.105713,3686.895508 2913.091797,3656.620605 2875.913818,3635.551270 
	C2855.854980,3624.183838 2834.225098,3618.253418 2811.090576,3618.257324 
	C2772.842041,3618.263916 2735.537842,3624.083984 2699.366455,3636.682373 
	C2694.976807,3638.210938 2690.596436,3639.854004 2686.411865,3641.861328 
	C2679.166748,3645.336670 2675.031006,3650.858398 2676.118896,3659.355713 
	C2676.372559,3661.336182 2676.243896,3663.408936 2676.775146,3665.303467 
	C2681.479736,3682.073486 2678.541016,3698.246338 2673.300293,3714.310791 
	C2672.274414,3717.455078 2671.913330,3720.816406 2670.381348,3727.355469 
M2011.762573,4050.137207 
	C2021.668091,4053.999512 2031.338867,4058.728760 2041.541748,4061.493652 
	C2053.013916,4064.601807 2064.905518,4067.262207 2076.720947,4067.804688 
	C2118.318604,4069.714844 2153.363770,4053.818359 2183.301758,4025.791748 
	C2203.470703,4006.910156 2218.861572,3984.387207 2231.284668,3959.862549 
	C2254.457520,3914.115967 2267.369141,3865.437744 2270.949219,3814.389404 
	C2273.018555,3784.882080 2269.332275,3755.874268 2259.973877,3727.697021 
	C2251.754395,3702.950195 2237.700195,3682.499023 2216.264893,3667.234375 
	C2187.757812,3646.933350 2156.695557,3632.324219 2122.770752,3623.597656 
	C2106.907227,3619.516846 2091.326660,3619.676758 2075.330566,3622.940430 
	C2052.585938,3627.580811 2032.679688,3637.608154 2014.781006,3652.063721 
	C1994.275146,3668.624512 1978.325439,3689.042969 1965.216919,3711.685547 
	C1938.480347,3757.867676 1922.758789,3807.858154 1916.727539,3860.664551 
	C1913.078613,3892.614014 1914.980469,3924.572754 1924.263794,3955.706787 
	C1931.670166,3980.545898 1944.636719,4001.858398 1964.355347,4018.941162 
	C1978.026123,4030.784424 1992.842651,4040.839844 2011.762573,4050.137207 
M3809.880859,3823.307617 
	C3802.663086,3838.287842 3794.928955,3853.046875 3788.396484,3868.320068 
	C3783.481445,3879.811523 3776.084961,3886.875488 3763.466553,3888.229980 
	C3760.194580,3888.581299 3756.940674,3889.533203 3753.798584,3890.572266 
	C3745.418213,3893.343994 3742.557861,3896.666504 3743.756592,3905.220947 
	C3745.040283,3914.381592 3747.227539,3923.526855 3750.095947,3932.328369 
	C3754.386963,3945.494385 3754.680420,3957.864746 3749.047119,3970.980469 
	C3742.760986,3985.615479 3737.944580,4000.913574 3733.051025,4016.104492 
	C3729.389160,4027.471924 3731.549072,4033.510742 3741.777832,4039.849365 
	C3757.659424,4049.690918 3774.658203,4057.409424 3792.472168,4063.020264 
	C3802.681396,4066.236084 3808.285156,4063.223633 3812.946777,4052.728027 
	C3816.992188,4043.620117 3820.321777,4034.193359 3823.932861,4024.894043 
	C3830.914551,4006.915039 3837.719482,3988.864990 3844.901611,3970.966309 
	C3848.712402,3961.468506 3855.665527,3956.511719 3866.428467,3956.242432 
	C3889.734619,3955.659180 3913.017334,3954.175049 3936.322021,3953.490723 
	C3955.835693,3952.917725 3957.607178,3955.014160 3957.199219,3975.218506 
	C3956.782715,3995.868164 3955.997314,4016.518066 3956.021484,4037.166748 
	C3956.036377,4049.900146 3958.983643,4054.027832 3971.552979,4056.599854 
	C3991.737305,4060.730225 4012.109131,4064.189941 4032.552246,4066.717285 
	C4045.420410,4068.308105 4050.386963,4063.239258 4051.322754,4049.377441 
	C4052.893311,4026.114990 4054.404053,4002.824707 4054.979736,3979.522461 
	C4057.169189,3890.893311 4055.533203,3802.295654 4051.143311,3713.763672 
	C4050.189453,3694.525146 4047.176025,3675.384521 4044.985352,3656.213379 
	C4043.898193,3646.697510 4038.343750,3639.909668 4029.770752,3636.729248 
	C4010.464355,3629.566895 3990.955566,3622.899170 3971.313965,3616.714355 
	C3963.115234,3614.132568 3960.672363,3615.485352 3955.901367,3624.425049 
	C3952.530518,3630.741211 3948.017090,3633.031006 3941.414062,3632.248047 
	C3938.782471,3631.935791 3936.047852,3631.578613 3933.621094,3630.597168 
	C3919.082275,3624.718506 3909.199707,3630.473633 3901.935303,3642.981445 
	C3891.912842,3660.238770 3881.011230,3677.060547 3872.114258,3694.881592 
	C3851.313965,3736.547363 3831.483887,3778.697021 3809.880859,3823.307617 
M2622.803223,3686.253906 
	C2622.786621,3678.255127 2623.111816,3670.237549 2622.667725,3662.262451 
	C2622.093750,3651.953125 2616.928711,3644.346924 2606.812012,3641.529541 
	C2589.520508,3636.714111 2572.203857,3631.740234 2554.606445,3628.341797 
	C2537.050049,3624.951172 2534.068604,3628.166504 2532.132568,3646.452637 
	C2525.606934,3708.092041 2516.568848,3769.354980 2503.387939,3829.939941 
	C2496.452148,3861.819580 2488.503906,3893.467041 2476.070312,3923.771973 
	C2470.748047,3936.744385 2464.642090,3949.305908 2455.871094,3960.373291 
	C2450.004395,3967.776367 2443.222656,3973.976562 2434.198730,3977.502686 
	C2415.541992,3984.792969 2398.565674,3977.667236 2392.674561,3958.792969 
	C2389.934082,3950.011963 2388.887451,3940.550049 2388.193359,3931.312500 
	C2386.383301,3907.217041 2389.587402,3883.343506 2393.490479,3859.683105 
	C2404.129883,3795.188721 2420.086914,3731.990723 2441.312256,3670.141113 
	C2442.816895,3665.756104 2444.418701,3661.294922 2445.044189,3656.741211 
	C2446.251953,3647.947510 2443.391602,3643.018311 2434.569336,3640.055420 
	C2419.444336,3634.975098 2404.215820,3630.094238 2388.791748,3626.039062 
	C2366.981689,3620.305176 2360.112061,3623.409180 2351.283447,3644.103516 
	C2343.724609,3661.821777 2337.019531,3679.964600 2331.005615,3698.270996 
	C2311.182129,3758.615967 2298.624023,3820.510986 2293.291992,3883.812500 
	C2291.216064,3908.456787 2291.699463,3933.056396 2296.023193,3957.538818 
	C2301.237549,3987.063721 2314.974365,4011.103271 2339.238770,4029.231445 
	C2363.638672,4047.461182 2390.248291,4060.464355 2420.276123,4066.083740 
	C2435.489258,4068.930664 2450.599609,4068.908203 2465.851807,4065.413574 
	C2485.962402,4060.805664 2502.845215,4050.777100 2517.629395,4036.803467 
	C2537.792969,4017.745850 2552.109863,3994.589355 2564.045654,3969.831055 
	C2582.962158,3930.593750 2594.709717,3889.014648 2603.808594,3846.611084 
	C2614.882080,3795.003662 2620.239014,3742.691162 2622.803223,3686.253906 
M4534.329590,3789.227783 
	C4533.618652,3787.371094 4532.576660,3785.571533 4532.245605,3783.649414 
	C4527.014160,3753.321289 4547.305664,3715.284668 4575.478027,3702.965088 
	C4579.649902,3701.141113 4584.329590,3699.957031 4588.866211,3699.579834 
	C4607.045898,3698.068115 4618.623047,3707.112305 4619.931641,3725.293701 
	C4620.735352,3736.465820 4619.452637,3747.881836 4618.166016,3759.080322 
	C4617.183594,3767.638184 4614.575684,3775.997803 4612.960938,3784.497070 
	C4610.555664,3797.160645 4613.034180,3800.978027 4625.396973,3801.124512 
	C4644.714355,3801.354004 4664.041016,3800.533691 4683.364746,3800.470459 
	C4692.570801,3800.440186 4698.131836,3795.873291 4701.982422,3787.994141 
	C4710.193359,3771.188721 4716.626953,3753.855225 4720.645996,3735.495850 
	C4725.345703,3714.029053 4719.210938,3696.115234 4704.966797,3680.293701 
	C4695.508789,3669.788818 4684.250977,3661.552734 4672.062500,3654.520020 
	C4644.685059,3638.723633 4615.380859,3628.419434 4584.210938,3623.143066 
	C4571.639160,3621.014404 4559.328125,3619.770264 4546.550293,3622.276611 
	C4524.223633,3626.655029 4505.419922,3637.450195 4488.881348,3652.418945 
	C4461.499512,3677.201172 4442.921387,3707.695068 4433.593750,3743.338379 
	C4421.296875,3790.325684 4433.102051,3830.250000 4470.970215,3861.595947 
	C4477.118652,3866.685303 4483.432617,3871.694092 4490.194336,3875.896729 
	C4503.753906,3884.322998 4517.669922,3892.175293 4531.448242,3900.248291 
	C4541.783691,3906.303711 4552.459473,3911.850098 4562.366211,3918.537842 
	C4569.471191,3923.334473 4576.373047,3928.942383 4581.925781,3935.422119 
	C4593.303223,3948.698242 4591.584473,3964.512451 4578.246094,3976.021729 
	C4569.434082,3983.624756 4559.005371,3987.540527 4547.355957,3988.653809 
	C4513.540527,3991.885742 4497.878418,3981.481445 4488.202148,3948.867432 
	C4485.743164,3940.580078 4483.873535,3932.104492 4481.118164,3923.922119 
	C4478.600586,3916.446045 4475.229980,3914.149170 4467.654297,3914.765869 
	C4447.606445,3916.397217 4428.261230,3921.427734 4409.633301,3928.799561 
	C4399.242676,3932.911377 4395.773438,3939.767578 4397.414062,3951.190674 
	C4398.735840,3960.392822 4400.939941,3969.475830 4402.929688,3978.572754 
	C4409.300293,4007.689941 4426.200195,4028.915771 4451.869141,4043.503906 
	C4478.345215,4058.550781 4506.856445,4067.465332 4537.160156,4069.195801 
	C4598.216797,4072.682129 4644.444824,4046.547607 4675.142090,3994.667480 
	C4698.751953,3954.765381 4695.523926,3902.720215 4648.485840,3869.004639 
	C4633.396973,3858.189209 4616.882812,3849.328613 4600.815918,3839.922852 
	C4589.909668,3833.538330 4578.437012,3828.113525 4567.599609,3821.622070 
	C4554.974609,3814.061279 4543.148926,3805.393555 4534.329590,3789.227783 
M3273.885010,3700.717285 
	C3287.977051,3702.116699 3294.613770,3711.101807 3297.690430,3723.887451 
	C3300.708496,3736.428223 3300.454590,3749.010742 3298.095947,3761.541504 
	C3296.128174,3771.993652 3293.329834,3782.290039 3291.397705,3792.747314 
	C3290.242676,3798.999023 3293.729492,3803.582031 3300.002930,3803.460449 
	C3320.624268,3803.060303 3341.239990,3802.208984 3361.847656,3801.302979 
	C3370.678467,3800.914795 3376.692383,3796.218262 3380.043457,3788.009766 
	C3387.595947,3769.508789 3394.241455,3750.831543 3397.512939,3730.920410 
	C3400.555420,3712.404053 3395.691895,3696.699707 3384.122559,3682.631104 
	C3374.714600,3671.191406 3363.085205,3662.351318 3350.510254,3654.643555 
	C3324.733643,3638.843750 3296.882324,3628.198730 3267.516357,3621.500732 
	C3255.042969,3618.655518 3242.394287,3619.166992 3229.840576,3621.769531 
	C3206.379639,3626.633545 3186.485352,3638.283203 3168.679932,3653.871826 
	C3144.774902,3674.801270 3127.032471,3700.425049 3112.523193,3728.416748 
	C3091.158936,3769.633057 3078.049561,3813.496338 3072.901123,3859.515625 
	C3069.860840,3886.689209 3069.775879,3914.038086 3076.183105,3940.992188 
	C3084.655273,3976.630127 3102.277832,4006.095215 3132.703125,4027.539062 
	C3154.674072,4043.024170 3178.329102,4054.773926 3203.918701,4062.768066 
	C3231.915771,4071.513916 3259.027344,4069.018799 3285.535400,4056.715820 
	C3308.759033,4045.937500 3329.273682,4031.437012 3347.153076,4013.177002 
	C3350.406982,4009.853760 3353.300537,4006.177490 3356.358643,4002.662109 
	C3361.120850,3997.187256 3363.160645,3990.446289 3360.371582,3984.052002 
	C3352.950439,3967.037842 3345.053223,3950.189453 3336.399414,3933.773682 
	C3332.650879,3926.663574 3325.943359,3926.020508 3319.355713,3930.610352 
	C3312.806885,3935.173096 3306.743408,3940.431396 3300.203857,3945.008789 
	C3283.259277,3956.869141 3265.714600,3967.578125 3245.411377,3972.935303 
	C3218.334961,3980.079102 3194.549805,3969.860107 3181.790771,3945.060059 
	C3175.953369,3933.713623 3172.728516,3921.537842 3171.722412,3908.762451 
	C3166.875244,3847.221924 3183.577637,3791.558350 3217.799072,3740.799072 
	C3222.602295,3733.674805 3228.576660,3727.244385 3234.581299,3721.047363 
	C3244.477295,3710.833984 3255.998779,3703.132568 3273.885010,3700.717285 
M1809.572876,3710.984619 
	C1791.095581,3751.580322 1770.944580,3791.327148 1749.079590,3830.203613 
	C1747.181763,3833.578369 1745.943726,3837.822266 1740.049438,3836.641357 
	C1738.953735,3833.138916 1737.382080,3829.435303 1736.650513,3825.572266 
	C1728.962036,3784.978027 1723.650146,3744.053223 1719.778320,3702.928467 
	C1717.655640,3680.383545 1715.166138,3657.872314 1713.174927,3635.316650 
	C1712.399170,3626.528320 1706.857788,3620.976074 1696.987915,3621.672363 
	C1683.702515,3622.610107 1670.419556,3623.829346 1657.210327,3625.514648 
	C1647.330811,3626.775146 1637.452026,3628.486816 1627.789917,3630.875732 
	C1618.576172,3633.154053 1615.651733,3636.990479 1615.652100,3646.492188 
	C1615.652344,3656.466064 1615.918945,3666.545166 1617.340088,3676.395264 
	C1623.328857,3717.902832 1629.340698,3759.417480 1636.243530,3800.779297 
	C1640.732422,3827.676025 1646.644775,3854.325439 1655.307739,3880.300049 
	C1659.781372,3893.713867 1666.768799,3904.034668 1681.140625,3908.366211 
	C1686.602417,3910.012207 1692.738037,3911.940430 1695.088013,3919.819092 
	C1692.281860,3924.177979 1689.413818,3929.401123 1685.827393,3934.072510 
	C1668.792969,3956.257812 1651.584229,3978.309326 1634.383911,4000.366699 
	C1631.108521,4004.566650 1627.381226,4008.424072 1624.230835,4012.710205 
	C1618.659424,4020.288818 1619.262085,4025.876709 1627.209351,4031.316650 
	C1645.914062,4044.120117 1665.512451,4055.468750 1686.633057,4063.847412 
	C1700.239136,4069.244873 1704.301758,4068.019043 1714.255493,4056.204834 
	C1722.406982,4046.529541 1730.332764,4036.641113 1737.930054,4026.525391 
	C1806.983398,3934.582520 1864.001221,3835.508057 1912.197510,3731.262207 
	C1919.728760,3714.972900 1926.482544,3698.295898 1932.929565,3681.541992 
	C1938.162354,3667.943848 1936.521362,3660.995850 1924.795410,3654.430908 
	C1905.674438,3643.726318 1885.807617,3634.347900 1866.175537,3624.570068 
	C1863.851440,3623.412354 1861.050415,3622.881592 1858.429565,3622.719238 
	C1852.735229,3622.366455 1847.890381,3624.284912 1845.025757,3629.549561 
	C1843.440674,3632.462646 1842.188843,3635.563477 1840.877808,3638.618652 
	C1830.908447,3661.849609 1820.961426,3685.090332 1809.572876,3710.984619 
M4253.651855,4065.619385 
	C4266.820312,4063.336182 4267.077637,4063.372070 4268.414551,4053.767578 
	C4270.159180,4041.230713 4271.235352,4028.600830 4272.962891,4016.061035 
	C4283.330566,3940.814209 4296.996582,3866.151367 4313.087891,3791.929932 
	C4317.037109,3773.714355 4321.455566,3755.600098 4325.708008,3737.450928 
	C4327.755859,3728.711426 4332.784668,3723.549072 4342.268555,3723.057861 
	C4358.238281,3722.230957 4374.186523,3721.009033 4390.148926,3720.031250 
	C4396.801270,3719.623535 4403.520020,3719.851562 4410.110840,3719.018555 
	C4420.672852,3717.684326 4425.548340,3712.854736 4426.647461,3702.237793 
	C4427.468750,3694.307617 4427.370605,3686.260010 4427.320801,3678.266846 
	C4427.250000,3666.938232 4427.329590,3655.575439 4426.476562,3644.292725 
	C4425.118164,3626.317383 4421.479492,3623.026855 4402.987305,3621.244629 
	C4398.348633,3620.797852 4393.672852,3620.679199 4389.009766,3620.545654 
	C4321.587402,3618.611084 4254.440430,3623.390137 4187.334961,3628.989502 
	C4176.720703,3629.875000 4166.110840,3631.189941 4155.611328,3632.970703 
	C4143.823242,3634.970703 4139.509277,3639.895508 4139.549316,3651.925293 
	C4139.606445,3669.248291 4140.261230,3686.576416 4141.035645,3703.885498 
	C4141.271973,3709.167480 4142.640625,3714.413818 4143.669922,3719.641357 
	C4144.850586,3725.636230 4149.004395,3728.842529 4154.689941,3729.679199 
	C4158.580566,3730.251465 4162.628418,3729.906494 4166.597656,3729.756104 
	C4179.252441,3729.277100 4191.927246,3729.025635 4204.549316,3728.079834 
	C4223.664062,3726.647461 4227.306641,3730.064453 4222.459961,3749.369873 
	C4203.951172,3823.093262 4190.557129,3897.782715 4181.207520,3973.190674 
	C4178.995605,3991.033447 4177.575684,4009.007080 4176.637695,4026.964844 
	C4175.857910,4041.895020 4179.984863,4047.911865 4194.244141,4051.786865 
	C4212.838379,4056.840088 4231.760254,4060.685791 4253.651855,4065.619385 
z"/>
<path fill="#A060FE" opacity="1.000000" stroke="none" 
	d="
M3694.410156,2524.000488 
	C3694.401611,2575.333252 3694.545410,2624.666992 3694.336914,2673.998779 
	C3694.172852,2712.886475 3689.677246,2751.254639 3676.157227,2787.932373 
	C3629.551514,2914.364258 3539.402588,2989.776611 3407.328857,3014.731934 
	C3387.835449,3018.415283 3367.540039,3018.835693 3347.599854,3019.015869 
	C3190.817871,3020.432373 3044.984131,3061.281738 2909.740479,3140.153076 
	C2846.677246,3176.930176 2789.327637,3221.307617 2737.617188,3272.900146 
	C2725.818604,3284.671631 2714.075684,3296.499023 2702.221436,3308.213867 
	C2700.040527,3310.369141 2697.446533,3312.105713 2693.188721,3315.525391 
	C2691.274414,3304.933350 2692.158203,3296.469971 2692.027100,3288.120117 
	C2691.880615,3278.789062 2691.993164,3269.454102 2691.993164,3260.120850 
	C2691.992920,3251.454346 2691.993164,3242.787598 2691.993164,3234.121094 
	C2691.993164,3225.454590 2691.993164,3216.787842 2691.993164,3208.121338 
	C2691.993164,3199.454834 2691.993164,3190.788086 2691.993164,3182.121582 
	C2691.993164,3172.788330 2691.993164,3163.455078 2691.993164,3154.121826 
	C2691.993164,3145.455322 2691.993164,3136.788574 2691.993164,3128.122070 
	C2691.993164,3119.455566 2691.993164,3110.788818 2691.993164,3102.122314 
	C2691.993164,3093.455811 2691.993164,3084.789062 2691.993164,3076.122559 
	C2691.993164,3066.789307 2691.993164,3057.456299 2691.993164,3048.123047 
	C2691.993164,3039.529053 2691.993164,3030.935303 2691.993164,3022.345703 
	C2684.490967,3017.277100 2676.951172,3019.197266 2669.948975,3019.235840 
	C2644.530762,3019.375732 2619.390625,3017.212402 2594.447021,3012.247070 
	C2456.833740,2984.853027 2349.343506,2873.445068 2327.479736,2734.825928 
	C2324.791016,2717.780029 2323.253662,2700.375244 2323.162598,2683.126465 
	C2322.665039,2589.130859 2321.745850,2495.118164 2323.002930,2401.138428 
	C2324.158936,2314.721436 2356.882568,2240.243896 2416.011963,2177.654785 
	C2466.544678,2124.165283 2528.649170,2090.958984 2600.945557,2077.608398 
	C2619.849365,2074.117432 2639.337646,2072.293457 2658.561279,2072.264404 
	C2891.891846,2071.911621 3125.225342,2071.388672 3358.553223,2072.265381 
	C3517.018555,2072.860596 3653.670898,2185.162354 3686.884521,2342.493652 
	C3692.552979,2369.344238 3693.913574,2396.678223 3694.297607,2424.002930 
	C3694.756348,2456.662842 3694.408936,2489.333984 3694.410156,2524.000488 
z"/>
<path fill="#00E3E2" opacity="1.000000" stroke="none" 
	d="
M3791.819336,1800.116455 
	C3856.769775,1844.489380 3901.242676,1902.763794 3926.007324,1975.941895 
	C3938.077148,2011.607666 3943.492188,2048.484131 3943.623047,2085.993164 
	C3943.938721,2176.636963 3946.139404,2267.365967 3943.069824,2357.907715 
	C3938.593506,2489.933838 3875.632812,2587.841553 3760.283691,2652.083252 
	C3758.559082,2653.043213 3756.645752,2653.682617 3754.781006,2654.363037 
	C3754.229248,2654.564697 3753.541260,2654.394287 3751.502197,2654.394287 
	C3751.081543,2649.527588 3750.269775,2644.470703 3750.263916,2639.413086 
	C3750.179688,2567.430176 3750.341064,2495.447266 3750.154785,2423.464844 
	C3750.030029,2375.213867 3743.992188,2327.900879 3728.154785,2281.970947 
	C3682.684814,2150.104492 3568.116699,2050.032227 3431.739746,2023.463989 
	C3406.813232,2018.608032 3381.750732,2015.848145 3356.328857,2015.855713 
	C3124.384033,2015.924805 2892.439209,2015.938965 2660.494385,2015.827026 
	C2636.404053,2015.815308 2612.636719,2018.235840 2589.006592,2022.647583 
	C2585.909912,2023.225952 2582.697998,2023.189087 2578.237793,2023.539551 
	C2578.257568,2015.771851 2579.673828,2009.409424 2581.152100,2003.140869 
	C2610.265869,1879.669434 2710.645752,1780.369995 2834.806641,1752.129883 
	C2858.920166,1746.645386 2883.277100,1743.649292 2908.072998,1743.660034 
	C3142.017334,1743.761230 3375.961914,1743.581177 3609.906006,1743.815063 
	C3675.643066,1743.880737 3735.688477,1763.521484 3791.819336,1800.116455 
z"/>
<path fill="#FBFBFC" opacity="1.000000" stroke="none" 
	d="
M3552.262695,3927.966797 
	C3540.990967,3928.149170 3531.657227,3928.149902 3522.336182,3928.491211 
	C3507.441406,3929.036377 3503.217773,3932.350586 3500.794189,3946.509521 
	C3497.536865,3965.534668 3494.689697,3984.632812 3491.895996,4003.733154 
	C3489.487305,4020.202393 3487.666992,4036.760498 3485.077637,4053.198975 
	C3483.382568,4063.958740 3479.336670,4067.546143 3468.814209,4065.379150 
	C3448.658447,4061.227783 3428.679199,4056.097656 3408.830566,4050.633057 
	C3399.520020,4048.070068 3394.597900,4040.715820 3394.919922,4030.989258 
	C3395.360840,4017.681152 3396.162354,4004.361816 3397.464600,3991.111572 
	C3399.027832,3975.210693 3401.313232,3959.381104 3403.220947,3943.513184 
	C3404.258301,3934.884521 3403.675537,3927.225830 3399.103760,3918.755615 
	C3391.060547,3903.853027 3391.193115,3886.646484 3392.015869,3869.977783 
	C3392.175049,3866.755127 3395.571289,3863.146484 3398.367920,3860.765625 
	C3400.759277,3858.729980 3404.402344,3858.112549 3407.545410,3857.021729 
	C3415.262939,3854.343994 3418.884766,3848.949707 3420.381836,3840.888184 
	C3425.242676,3814.718018 3430.348389,3788.583008 3435.996094,3762.572266 
	C3444.467773,3723.555908 3454.237061,3684.877441 3466.348633,3646.780029 
	C3476.232910,3615.689209 3481.937012,3620.424072 3505.372070,3624.684814 
	C3521.023438,3627.530273 3536.271484,3632.617188 3551.677246,3636.783936 
	C3566.024170,3640.664062 3569.063232,3649.049316 3564.539307,3662.196777 
	C3546.316406,3715.153320 3534.525635,3769.824951 3523.275635,3824.590088 
	C3519.704590,3841.972900 3521.682373,3844.173828 3539.899170,3843.965332 
	C3559.219971,3843.744385 3578.543457,3843.300049 3597.852783,3842.598145 
	C3616.791260,3841.909912 3619.228027,3839.554688 3623.146973,3821.366943 
	C3630.014648,3789.494629 3636.314453,3757.477295 3644.160889,3725.845215 
	C3651.201904,3697.460449 3659.381836,3669.314941 3668.228027,3641.434814 
	C3675.032959,3619.987549 3678.484863,3618.442383 3700.327148,3623.419922 
	C3717.167236,3627.257568 3733.766602,3632.154541 3750.456787,3636.641357 
	C3752.371582,3637.156006 3754.205566,3638.007324 3756.035156,3638.799316 
	C3765.240967,3642.785889 3767.642822,3647.594727 3764.825928,3657.788574 
	C3760.396973,3673.816650 3755.480225,3689.710205 3751.087891,3705.748047 
	C3733.319580,3770.627441 3719.151123,3836.330078 3707.788818,3902.596680 
	C3699.464844,3951.141846 3692.548340,3999.928711 3685.027588,4048.611328 
	C3684.621094,4051.242920 3684.634277,4053.949951 3684.096436,4056.548340 
	C3682.869141,4062.480225 3678.795654,4066.017334 3672.892822,4065.850342 
	C3668.927246,4065.738281 3664.898926,4065.170654 3661.045410,4064.215576 
	C3644.269287,4060.057617 3627.392578,4056.196777 3610.852539,4051.228516 
	C3597.106201,4047.099121 3593.016846,4040.802002 3593.656494,4025.760498 
	C3594.278564,4011.128418 3595.729492,3996.516113 3597.274902,3981.943604 
	C3598.679199,3968.704590 3600.779297,3955.540527 3602.425537,3942.325439 
	C3603.900635,3930.484131 3600.599121,3926.856201 3588.174805,3926.985107 
	C3576.850098,3927.102539 3565.529297,3927.605225 3552.262695,3927.966797 
z"/>
<path fill="#FBFBFC" opacity="1.000000" stroke="none" 
	d="
M2670.813477,3725.716553 
	C2671.913330,3720.816406 2672.274414,3717.455078 2673.300293,3714.310791 
	C2678.541016,3698.246338 2681.479736,3682.073486 2676.775146,3665.303467 
	C2676.243896,3663.408936 2676.372559,3661.336182 2676.118896,3659.355713 
	C2675.031006,3650.858398 2679.166748,3645.336670 2686.411865,3641.861328 
	C2690.596436,3639.854004 2694.976807,3638.210938 2699.366455,3636.682373 
	C2735.537842,3624.083984 2772.842041,3618.263916 2811.090576,3618.257324 
	C2834.225098,3618.253418 2855.854980,3624.183838 2875.913818,3635.551270 
	C2913.091797,3656.620605 2940.105713,3686.895508 2956.659668,3726.305664 
	C2971.124756,3760.742188 2967.847412,3793.926270 2948.496582,3825.593262 
	C2932.788086,3851.299561 2910.324951,3869.759277 2884.098145,3883.827881 
	C2875.336426,3888.527588 2865.952637,3892.056641 2856.948242,3896.321533 
	C2853.452637,3897.977295 2850.220215,3900.188965 2846.119385,3902.584717 
	C2847.327148,3906.817627 2847.554443,3911.027588 2849.550781,3914.080811 
	C2869.223145,3944.166260 2888.888672,3974.288086 2914.494873,3999.892334 
	C2916.376709,4001.773682 2918.407959,4003.542480 2920.057129,4005.612549 
	C2924.024170,4010.591064 2924.133545,4015.331787 2920.259766,4020.156250 
	C2918.193604,4022.729736 2915.913818,4025.288086 2913.264404,4027.211426 
	C2898.203613,4038.144775 2883.472168,4049.636230 2867.720215,4059.484863 
	C2850.957520,4069.965332 2843.114502,4068.601807 2829.122803,4053.853516 
	C2820.462158,4044.724365 2812.510742,4034.732178 2805.460938,4024.302246 
	C2787.478760,3997.698730 2774.294678,3968.648438 2763.827393,3938.341797 
	C2761.875732,3932.690430 2760.300781,3926.878662 2757.937500,3921.406494 
	C2754.237305,3912.840332 2744.644043,3909.242676 2736.450195,3913.648926 
	C2733.958984,3914.988281 2731.737305,3918.508545 2731.135986,3921.393555 
	C2728.421875,3934.409668 2725.971436,3947.503906 2724.092285,3960.665527 
	C2719.766357,3990.963867 2715.869141,4021.323486 2711.711670,4051.646240 
	C2710.044922,4063.801514 2704.510986,4068.625732 2692.823975,4065.962891 
	C2673.406494,4061.538818 2654.100342,4056.449219 2635.053467,4050.637207 
	C2622.746582,4046.881592 2619.373291,4041.836182 2620.045166,4028.110352 
	C2621.085693,4006.853760 2622.456299,3985.535156 2625.289795,3964.458496 
	C2636.022461,3884.623291 2651.386719,3805.636230 2670.813477,3725.716553 
M2836.167236,3806.318604 
	C2841.182129,3800.994141 2846.590820,3795.981934 2851.124023,3790.274658 
	C2858.667725,3780.776611 2863.773193,3770.033203 2865.790771,3757.895508 
	C2869.434570,3735.971924 2859.282959,3716.603760 2838.982666,3707.392578 
	C2824.639404,3700.884277 2809.454346,3699.790283 2794.011963,3700.889893 
	C2782.843506,3701.685303 2775.546875,3707.014893 2772.924561,3718.503174 
	C2764.931641,3753.518311 2756.559326,3788.447021 2748.648926,3823.480225 
	C2747.869629,3826.931641 2749.248779,3830.870605 2749.769531,3835.991699 
	C2782.148193,3836.738525 2809.666748,3827.564697 2836.167236,3806.318604 
z"/>
<path fill="#FBFBFC" opacity="1.000000" stroke="none" 
	d="
M2010.450195,4049.419922 
	C1992.842651,4040.839844 1978.026123,4030.784424 1964.355347,4018.941162 
	C1944.636719,4001.858398 1931.670166,3980.545898 1924.263794,3955.706787 
	C1914.980469,3924.572754 1913.078613,3892.614014 1916.727539,3860.664551 
	C1922.758789,3807.858154 1938.480347,3757.867676 1965.216919,3711.685547 
	C1978.325439,3689.042969 1994.275146,3668.624512 2014.781006,3652.063721 
	C2032.679688,3637.608154 2052.585938,3627.580811 2075.330566,3622.940430 
	C2091.326660,3619.676758 2106.907227,3619.516846 2122.770752,3623.597656 
	C2156.695557,3632.324219 2187.757812,3646.933350 2216.264893,3667.234375 
	C2237.700195,3682.499023 2251.754395,3702.950195 2259.973877,3727.697021 
	C2269.332275,3755.874268 2273.018555,3784.882080 2270.949219,3814.389404 
	C2267.369141,3865.437744 2254.457520,3914.115967 2231.284668,3959.862549 
	C2218.861572,3984.387207 2203.470703,4006.910156 2183.301758,4025.791748 
	C2153.363770,4053.818359 2118.318604,4069.714844 2076.720947,4067.804688 
	C2064.905518,4067.262207 2053.013916,4064.601807 2041.541748,4061.493652 
	C2031.338867,4058.728760 2021.668091,4053.999512 2010.450195,4049.419922 
M2160.029053,3869.418457 
	C2166.136475,3847.539551 2168.915771,3825.107422 2170.827881,3802.564453 
	C2172.183594,3786.578369 2171.212891,3770.658447 2168.173828,3754.874512 
	C2166.143066,3744.328125 2162.773193,3734.309082 2156.734131,3725.350586 
	C2145.955322,3709.361084 2130.741211,3703.342773 2111.895996,3706.905029 
	C2098.270020,3709.480713 2087.287598,3716.671631 2077.343262,3725.713379 
	C2065.414795,3736.558838 2056.022705,3749.492432 2048.333252,3763.572754 
	C2021.081665,3813.473877 2010.274170,3866.780762 2016.283691,3923.334473 
	C2017.767212,3937.295166 2021.479004,3950.823730 2029.285400,3962.763916 
	C2041.724243,3981.788818 2061.516113,3988.378418 2083.183105,3981.327637 
	C2093.550537,3977.953857 2102.284912,3972.139893 2110.131836,3964.781738 
	C2120.421875,3955.132812 2128.483398,3943.772705 2135.466553,3931.599609 
	C2146.120361,3913.027588 2153.287109,3893.039307 2160.029053,3869.418457 
z"/>
<path fill="#FBFBFC" opacity="1.000000" stroke="none" 
	d="
M3810.570801,3821.979004 
	C3831.483887,3778.697021 3851.313965,3736.547363 3872.114258,3694.881592 
	C3881.011230,3677.060547 3891.912842,3660.238770 3901.935303,3642.981445 
	C3909.199707,3630.473633 3919.082275,3624.718506 3933.621094,3630.597168 
	C3936.047852,3631.578613 3938.782471,3631.935791 3941.414062,3632.248047 
	C3948.017090,3633.031006 3952.530518,3630.741211 3955.901367,3624.425049 
	C3960.672363,3615.485352 3963.115234,3614.132568 3971.313965,3616.714355 
	C3990.955566,3622.899170 4010.464355,3629.566895 4029.770752,3636.729248 
	C4038.343750,3639.909668 4043.898193,3646.697510 4044.985352,3656.213379 
	C4047.176025,3675.384521 4050.189453,3694.525146 4051.143311,3713.763672 
	C4055.533203,3802.295654 4057.169189,3890.893311 4054.979736,3979.522461 
	C4054.404053,4002.824707 4052.893311,4026.114990 4051.322754,4049.377441 
	C4050.386963,4063.239258 4045.420410,4068.308105 4032.552246,4066.717285 
	C4012.109131,4064.189941 3991.737305,4060.730225 3971.552979,4056.599854 
	C3958.983643,4054.027832 3956.036377,4049.900146 3956.021484,4037.166748 
	C3955.997314,4016.518066 3956.782715,3995.868164 3957.199219,3975.218506 
	C3957.607178,3955.014160 3955.835693,3952.917725 3936.322021,3953.490723 
	C3913.017334,3954.175049 3889.734619,3955.659180 3866.428467,3956.242432 
	C3855.665527,3956.511719 3848.712402,3961.468506 3844.901611,3970.966309 
	C3837.719482,3988.864990 3830.914551,4006.915039 3823.932861,4024.894043 
	C3820.321777,4034.193359 3816.992188,4043.620117 3812.946777,4052.728027 
	C3808.285156,4063.223633 3802.681396,4066.236084 3792.472168,4063.020264 
	C3774.658203,4057.409424 3757.659424,4049.690918 3741.777832,4039.849365 
	C3731.549072,4033.510742 3729.389160,4027.471924 3733.051025,4016.104492 
	C3737.944580,4000.913574 3742.760986,3985.615479 3749.047119,3970.980469 
	C3754.680420,3957.864746 3754.386963,3945.494385 3750.095947,3932.328369 
	C3747.227539,3923.526855 3745.040283,3914.381592 3743.756592,3905.220947 
	C3742.557861,3896.666504 3745.418213,3893.343994 3753.798584,3890.572266 
	C3756.940674,3889.533203 3760.194580,3888.581299 3763.466553,3888.229980 
	C3776.084961,3886.875488 3783.481445,3879.811523 3788.396484,3868.320068 
	C3794.928955,3853.046875 3802.663086,3838.287842 3810.570801,3821.979004 
M3959.481445,3746.819580 
	C3959.252441,3739.491211 3959.152344,3732.155518 3958.732422,3724.838135 
	C3958.559082,3721.816406 3958.635742,3718.134766 3952.712158,3718.114502 
	C3930.307861,3765.909668 3908.732422,3814.472656 3887.305176,3863.101562 
	C3886.312744,3865.353760 3886.438232,3868.098877 3885.919434,3871.399414 
	C3890.573730,3872.066895 3894.431641,3873.090576 3898.289795,3873.090088 
	C3912.951416,3873.087646 3927.617676,3872.915771 3942.273438,3872.498291 
	C3956.751953,3872.085938 3959.085693,3869.631592 3959.943359,3854.566650 
	C3960.284424,3848.582031 3960.322998,3842.572021 3960.282227,3836.575195 
	C3960.086670,3807.914307 3959.816650,3779.254395 3959.481445,3746.819580 
z"/>
<path fill="#FBFBFC" opacity="1.000000" stroke="none" 
	d="
M2622.747070,3688.145020 
	C2620.239014,3742.691162 2614.882080,3795.003662 2603.808594,3846.611084 
	C2594.709717,3889.014648 2582.962158,3930.593750 2564.045654,3969.831055 
	C2552.109863,3994.589355 2537.792969,4017.745850 2517.629395,4036.803467 
	C2502.845215,4050.777100 2485.962402,4060.805664 2465.851807,4065.413574 
	C2450.599609,4068.908203 2435.489258,4068.930664 2420.276123,4066.083740 
	C2390.248291,4060.464355 2363.638672,4047.461182 2339.238770,4029.231445 
	C2314.974365,4011.103271 2301.237549,3987.063721 2296.023193,3957.538818 
	C2291.699463,3933.056396 2291.216064,3908.456787 2293.291992,3883.812500 
	C2298.624023,3820.510986 2311.182129,3758.615967 2331.005615,3698.270996 
	C2337.019531,3679.964600 2343.724609,3661.821777 2351.283447,3644.103516 
	C2360.112061,3623.409180 2366.981689,3620.305176 2388.791748,3626.039062 
	C2404.215820,3630.094238 2419.444336,3634.975098 2434.569336,3640.055420 
	C2443.391602,3643.018311 2446.251953,3647.947510 2445.044189,3656.741211 
	C2444.418701,3661.294922 2442.816895,3665.756104 2441.312256,3670.141113 
	C2420.086914,3731.990723 2404.129883,3795.188721 2393.490479,3859.683105 
	C2389.587402,3883.343506 2386.383301,3907.217041 2388.193359,3931.312500 
	C2388.887451,3940.550049 2389.934082,3950.011963 2392.674561,3958.792969 
	C2398.565674,3977.667236 2415.541992,3984.792969 2434.198730,3977.502686 
	C2443.222656,3973.976562 2450.004395,3967.776367 2455.871094,3960.373291 
	C2464.642090,3949.305908 2470.748047,3936.744385 2476.070312,3923.771973 
	C2488.503906,3893.467041 2496.452148,3861.819580 2503.387939,3829.939941 
	C2516.568848,3769.354980 2525.606934,3708.092041 2532.132568,3646.452637 
	C2534.068604,3628.166504 2537.050049,3624.951172 2554.606445,3628.341797 
	C2572.203857,3631.740234 2589.520508,3636.714111 2606.812012,3641.529541 
	C2616.928711,3644.346924 2622.093750,3651.953125 2622.667725,3662.262451 
	C2623.111816,3670.237549 2622.786621,3678.255127 2622.747070,3688.145020 
z"/>
<path fill="#FBFBFC" opacity="1.000000" stroke="none" 
	d="
M4535.027344,3790.665527 
	C4543.148926,3805.393555 4554.974609,3814.061279 4567.599609,3821.622070 
	C4578.437012,3828.113525 4589.909668,3833.538330 4600.815918,3839.922852 
	C4616.882812,3849.328613 4633.396973,3858.189209 4648.485840,3869.004639 
	C4695.523926,3902.720215 4698.751953,3954.765381 4675.142090,3994.667480 
	C4644.444824,4046.547607 4598.216797,4072.682129 4537.160156,4069.195801 
	C4506.856445,4067.465332 4478.345215,4058.550781 4451.869141,4043.503906 
	C4426.200195,4028.915771 4409.300293,4007.689941 4402.929688,3978.572754 
	C4400.939941,3969.475830 4398.735840,3960.392822 4397.414062,3951.190674 
	C4395.773438,3939.767578 4399.242676,3932.911377 4409.633301,3928.799561 
	C4428.261230,3921.427734 4447.606445,3916.397217 4467.654297,3914.765869 
	C4475.229980,3914.149170 4478.600586,3916.446045 4481.118164,3923.922119 
	C4483.873535,3932.104492 4485.743164,3940.580078 4488.202148,3948.867432 
	C4497.878418,3981.481445 4513.540527,3991.885742 4547.355957,3988.653809 
	C4559.005371,3987.540527 4569.434082,3983.624756 4578.246094,3976.021729 
	C4591.584473,3964.512451 4593.303223,3948.698242 4581.925781,3935.422119 
	C4576.373047,3928.942383 4569.471191,3923.334473 4562.366211,3918.537842 
	C4552.459473,3911.850098 4541.783691,3906.303711 4531.448242,3900.248291 
	C4517.669922,3892.175293 4503.753906,3884.322998 4490.194336,3875.896729 
	C4483.432617,3871.694092 4477.118652,3866.685303 4470.970215,3861.595947 
	C4433.102051,3830.250000 4421.296875,3790.325684 4433.593750,3743.338379 
	C4442.921387,3707.695068 4461.499512,3677.201172 4488.881348,3652.418945 
	C4505.419922,3637.450195 4524.223633,3626.655029 4546.550293,3622.276611 
	C4559.328125,3619.770264 4571.639160,3621.014404 4584.210938,3623.143066 
	C4615.380859,3628.419434 4644.685059,3638.723633 4672.062500,3654.520020 
	C4684.250977,3661.552734 4695.508789,3669.788818 4704.966797,3680.293701 
	C4719.210938,3696.115234 4725.345703,3714.029053 4720.645996,3735.495850 
	C4716.626953,3753.855225 4710.193359,3771.188721 4701.982422,3787.994141 
	C4698.131836,3795.873291 4692.570801,3800.440186 4683.364746,3800.470459 
	C4664.041016,3800.533691 4644.714355,3801.354004 4625.396973,3801.124512 
	C4613.034180,3800.978027 4610.555664,3797.160645 4612.960938,3784.497070 
	C4614.575684,3775.997803 4617.183594,3767.638184 4618.166016,3759.080322 
	C4619.452637,3747.881836 4620.735352,3736.465820 4619.931641,3725.293701 
	C4618.623047,3707.112305 4607.045898,3698.068115 4588.866211,3699.579834 
	C4584.329590,3699.957031 4579.649902,3701.141113 4575.478027,3702.965088 
	C4547.305664,3715.284668 4527.014160,3753.321289 4532.245605,3783.649414 
	C4532.576660,3785.571533 4533.618652,3787.371094 4535.027344,3790.665527 
z"/>
<path fill="#FBFBFC" opacity="1.000000" stroke="none" 
	d="
M3272.160645,3700.747070 
	C3255.998779,3703.132568 3244.477295,3710.833984 3234.581299,3721.047363 
	C3228.576660,3727.244385 3222.602295,3733.674805 3217.799072,3740.799072 
	C3183.577637,3791.558350 3166.875244,3847.221924 3171.722412,3908.762451 
	C3172.728516,3921.537842 3175.953369,3933.713623 3181.790771,3945.060059 
	C3194.549805,3969.860107 3218.334961,3980.079102 3245.411377,3972.935303 
	C3265.714600,3967.578125 3283.259277,3956.869141 3300.203857,3945.008789 
	C3306.743408,3940.431396 3312.806885,3935.173096 3319.355713,3930.610352 
	C3325.943359,3926.020508 3332.650879,3926.663574 3336.399414,3933.773682 
	C3345.053223,3950.189453 3352.950439,3967.037842 3360.371582,3984.052002 
	C3363.160645,3990.446289 3361.120850,3997.187256 3356.358643,4002.662109 
	C3353.300537,4006.177490 3350.406982,4009.853760 3347.153076,4013.177002 
	C3329.273682,4031.437012 3308.759033,4045.937500 3285.535400,4056.715820 
	C3259.027344,4069.018799 3231.915771,4071.513916 3203.918701,4062.768066 
	C3178.329102,4054.773926 3154.674072,4043.024170 3132.703125,4027.539062 
	C3102.277832,4006.095215 3084.655273,3976.630127 3076.183105,3940.992188 
	C3069.775879,3914.038086 3069.860840,3886.689209 3072.901123,3859.515625 
	C3078.049561,3813.496338 3091.158936,3769.633057 3112.523193,3728.416748 
	C3127.032471,3700.425049 3144.774902,3674.801270 3168.679932,3653.871826 
	C3186.485352,3638.283203 3206.379639,3626.633545 3229.840576,3621.769531 
	C3242.394287,3619.166992 3255.042969,3618.655518 3267.516357,3621.500732 
	C3296.882324,3628.198730 3324.733643,3638.843750 3350.510254,3654.643555 
	C3363.085205,3662.351318 3374.714600,3671.191406 3384.122559,3682.631104 
	C3395.691895,3696.699707 3400.555420,3712.404053 3397.512939,3730.920410 
	C3394.241455,3750.831543 3387.595947,3769.508789 3380.043457,3788.009766 
	C3376.692383,3796.218262 3370.678467,3800.914795 3361.847656,3801.302979 
	C3341.239990,3802.208984 3320.624268,3803.060303 3300.002930,3803.460449 
	C3293.729492,3803.582031 3290.242676,3798.999023 3291.397705,3792.747314 
	C3293.329834,3782.290039 3296.128174,3771.993652 3298.095947,3761.541504 
	C3300.454590,3749.010742 3300.708496,3736.428223 3297.690430,3723.887451 
	C3294.613770,3711.101807 3287.977051,3702.116699 3272.160645,3700.747070 
z"/>
<path fill="#FBFBFC" opacity="1.000000" stroke="none" 
	d="
M1810.290283,3709.656250 
	C1820.961426,3685.090332 1830.908447,3661.849609 1840.877808,3638.618652 
	C1842.188843,3635.563477 1843.440674,3632.462646 1845.025757,3629.549561 
	C1847.890381,3624.284912 1852.735229,3622.366455 1858.429565,3622.719238 
	C1861.050415,3622.881592 1863.851440,3623.412354 1866.175537,3624.570068 
	C1885.807617,3634.347900 1905.674438,3643.726318 1924.795410,3654.430908 
	C1936.521362,3660.995850 1938.162354,3667.943848 1932.929565,3681.541992 
	C1926.482544,3698.295898 1919.728760,3714.972900 1912.197510,3731.262207 
	C1864.001221,3835.508057 1806.983398,3934.582520 1737.930054,4026.525391 
	C1730.332764,4036.641113 1722.406982,4046.529541 1714.255493,4056.204834 
	C1704.301758,4068.019043 1700.239136,4069.244873 1686.633057,4063.847412 
	C1665.512451,4055.468750 1645.914062,4044.120117 1627.209351,4031.316650 
	C1619.262085,4025.876709 1618.659424,4020.288818 1624.230835,4012.710205 
	C1627.381226,4008.424072 1631.108521,4004.566650 1634.383911,4000.366699 
	C1651.584229,3978.309326 1668.792969,3956.257812 1685.827393,3934.072510 
	C1689.413818,3929.401123 1692.281860,3924.177979 1695.088013,3919.819092 
	C1692.738037,3911.940430 1686.602417,3910.012207 1681.140625,3908.366211 
	C1666.768799,3904.034668 1659.781372,3893.713867 1655.307739,3880.300049 
	C1646.644775,3854.325439 1640.732422,3827.676025 1636.243530,3800.779297 
	C1629.340698,3759.417480 1623.328857,3717.902832 1617.340088,3676.395264 
	C1615.918945,3666.545166 1615.652344,3656.466064 1615.652100,3646.492188 
	C1615.651733,3636.990479 1618.576172,3633.154053 1627.789917,3630.875732 
	C1637.452026,3628.486816 1647.330811,3626.775146 1657.210327,3625.514648 
	C1670.419556,3623.829346 1683.702515,3622.610107 1696.987915,3621.672363 
	C1706.857788,3620.976074 1712.399170,3626.528320 1713.174927,3635.316650 
	C1715.166138,3657.872314 1717.655640,3680.383545 1719.778320,3702.928467 
	C1723.650146,3744.053223 1728.962036,3784.978027 1736.650513,3825.572266 
	C1737.382080,3829.435303 1738.953735,3833.138916 1740.049438,3836.641357 
	C1745.943726,3837.822266 1747.181763,3833.578369 1749.079590,3830.203613 
	C1770.944580,3791.327148 1791.095581,3751.580322 1810.290283,3709.656250 
z"/>
<path fill="#FBFBFC" opacity="1.000000" stroke="none" 
	d="
M4252.096680,4065.335205 
	C4231.760254,4060.685791 4212.838379,4056.840088 4194.244141,4051.786865 
	C4179.984863,4047.911865 4175.857910,4041.895020 4176.637695,4026.964844 
	C4177.575684,4009.007080 4178.995605,3991.033447 4181.207520,3973.190674 
	C4190.557129,3897.782715 4203.951172,3823.093262 4222.459961,3749.369873 
	C4227.306641,3730.064453 4223.664062,3726.647461 4204.549316,3728.079834 
	C4191.927246,3729.025635 4179.252441,3729.277100 4166.597656,3729.756104 
	C4162.628418,3729.906494 4158.580566,3730.251465 4154.689941,3729.679199 
	C4149.004395,3728.842529 4144.850586,3725.636230 4143.669922,3719.641357 
	C4142.640625,3714.413818 4141.271973,3709.167480 4141.035645,3703.885498 
	C4140.261230,3686.576416 4139.606445,3669.248291 4139.549316,3651.925293 
	C4139.509277,3639.895508 4143.823242,3634.970703 4155.611328,3632.970703 
	C4166.110840,3631.189941 4176.720703,3629.875000 4187.334961,3628.989502 
	C4254.440430,3623.390137 4321.587402,3618.611084 4389.009766,3620.545654 
	C4393.672852,3620.679199 4398.348633,3620.797852 4402.987305,3621.244629 
	C4421.479492,3623.026855 4425.118164,3626.317383 4426.476562,3644.292725 
	C4427.329590,3655.575439 4427.250000,3666.938232 4427.320801,3678.266846 
	C4427.370605,3686.260010 4427.468750,3694.307617 4426.647461,3702.237793 
	C4425.548340,3712.854736 4420.672852,3717.684326 4410.110840,3719.018555 
	C4403.520020,3719.851562 4396.801270,3719.623535 4390.148926,3720.031250 
	C4374.186523,3721.009033 4358.238281,3722.230957 4342.268555,3723.057861 
	C4332.784668,3723.549072 4327.755859,3728.711426 4325.708008,3737.450928 
	C4321.455566,3755.600098 4317.037109,3773.714355 4313.087891,3791.929932 
	C4296.996582,3866.151367 4283.330566,3940.814209 4272.962891,4016.061035 
	C4271.235352,4028.600830 4270.159180,4041.230713 4268.414551,4053.767578 
	C4267.077637,4063.372070 4266.820312,4063.336182 4252.096680,4065.335205 
z"/>
<path fill="#090321" opacity="1.000000" stroke="none" 
	d="
M2835.044189,3807.214355 
	C2809.666748,3827.564697 2782.148193,3836.738525 2749.769531,3835.991699 
	C2749.248779,3830.870605 2747.869629,3826.931641 2748.648926,3823.480225 
	C2756.559326,3788.447021 2764.931641,3753.518311 2772.924561,3718.503174 
	C2775.546875,3707.014893 2782.843506,3701.685303 2794.011963,3700.889893 
	C2809.454346,3699.790283 2824.639404,3700.884277 2838.982666,3707.392578 
	C2859.282959,3716.603760 2869.434570,3735.971924 2865.790771,3757.895508 
	C2863.773193,3770.033203 2858.667725,3780.776611 2851.124023,3790.274658 
	C2846.590820,3795.981934 2841.182129,3800.994141 2835.044189,3807.214355 
z"/>
<path fill="#090321" opacity="1.000000" stroke="none" 
	d="
M2159.689453,3871.012207 
	C2153.287109,3893.039307 2146.120361,3913.027588 2135.466553,3931.599609 
	C2128.483398,3943.772705 2120.421875,3955.132812 2110.131836,3964.781738 
	C2102.284912,3972.139893 2093.550537,3977.953857 2083.183105,3981.327637 
	C2061.516113,3988.378418 2041.724243,3981.788818 2029.285400,3962.763916 
	C2021.479004,3950.823730 2017.767212,3937.295166 2016.283691,3923.334473 
	C2010.274170,3866.780762 2021.081665,3813.473877 2048.333252,3763.572754 
	C2056.022705,3749.492432 2065.414795,3736.558838 2077.343262,3725.713379 
	C2087.287598,3716.671631 2098.270020,3709.480713 2111.895996,3706.905029 
	C2130.741211,3703.342773 2145.955322,3709.361084 2156.734131,3725.350586 
	C2162.773193,3734.309082 2166.143066,3744.328125 2168.173828,3754.874512 
	C2171.212891,3770.658447 2172.183594,3786.578369 2170.827881,3802.564453 
	C2168.915771,3825.107422 2166.136475,3847.539551 2159.689453,3871.012207 
z"/>
<path fill="#090321" opacity="1.000000" stroke="none" 
	d="
M3959.527344,3748.706787 
	C3959.816650,3779.254395 3960.086670,3807.914307 3960.282227,3836.575195 
	C3960.322998,3842.572021 3960.284424,3848.582031 3959.943359,3854.566650 
	C3959.085693,3869.631592 3956.751953,3872.085938 3942.273438,3872.498291 
	C3927.617676,3872.915771 3912.951416,3873.087646 3898.289795,3873.090088 
	C3894.431641,3873.090576 3890.573730,3872.066895 3885.919434,3871.399414 
	C3886.438232,3868.098877 3886.312744,3865.353760 3887.305176,3863.101562 
	C3908.732422,3814.472656 3930.307861,3765.909668 3952.712158,3718.114502 
	C3958.635742,3718.134766 3958.559082,3721.816406 3958.732422,3724.838135 
	C3959.152344,3732.155518 3959.252441,3739.491211 3959.527344,3748.706787 
z"/>
</svg>